<?xml version="1.0" standalone="no"?>
<!DOCTYPE svg PUBLIC "-//W3C//DTD SVG 1.1//EN" "http://www.w3.org/Graphics/SVG/1.1/DTD/svg11.dtd" >
<svg xmlns="http://www.w3.org/2000/svg" xmlns:xlink="http://www.w3.org/1999/xlink" version="1.1">
<metadata>
Created by FontForge 20170924 at Thu Aug 17 23:46:19 2017
 By www-data
Copyright (C) 2017 by conception @ fontello.com
</metadata>
<defs>
<font id="navigation" horiz-adv-x="1000" >
  <font-face 
    font-family="navigation"
    font-weight="400"
    font-stretch="normal"
    units-per-em="1000"
    panose-1="2 0 5 0 0 0 0 0 0 0"
    ascent="850"
    descent="-150"
    bbox="-0.5 -150 1071 850"
    underline-thickness="0"
    underline-position="10"
    unicode-range="U+E805-F1FC"
  />
<missing-glyph horiz-adv-x="364" 
d="M33 0v666h265v-666h-265zM66 33h199v600h-199v-600z" />
    <glyph glyph-name=".notdef" horiz-adv-x="364" 
d="M33 0v666h265v-666h-265zM66 33h199v600h-199v-600z" />
    <glyph glyph-name=".null" horiz-adv-x="0" 
 />
    <glyph glyph-name="nonmarkingreturn" horiz-adv-x="333" 
 />
    <glyph glyph-name="tag" unicode="&#xe827;" horiz-adv-x="857" 
d="M845 279q0 -30 -20 -51l-274 -274q-22 -21 -51.5 -21t-49.5 21l-399 399q-21 21 -36 57t-15 65v232q0 29 21 50t50 22h233q29 0 65 -15t57 -36l399 -399q20 -21 20 -50zM250 600q0 30 -21 51t-50 20t-51 -20t-21 -51t21 -50t51 -21t50 21t21 50z" />
    <glyph glyph-name="tags" unicode="&#xe828;" horiz-adv-x="1071" 
d="M845 279q0 -30 -20 -51l-274 -274q-22 -21 -51.5 -21t-49.5 21l-399 399q-21 21 -36 57t-15 65v232q0 29 21 50t50 22h233q29 0 65 -15t57 -36l399 -399q20 -21 20 -50zM1060 279q0 -30 -21 -51l-274 -274q-22 -21 -51 -21q-20 0 -33 8t-29 25l262 262q21 21 21 50.5
t-21 50.5l-399 399q-21 21 -57 36t-65 15h125q29 0 65 -15t57 -36l399 -399q21 -21 21 -50zM250 600q0 30 -21 51t-50 20t-51 -20t-21 -51t21 -50t51 -21t50 21t21 50z" />
    <glyph glyph-name="folder" unicode="&#xe83d;" horiz-adv-x="928" 
d="M929 511v-393q0 -51 -37 -88t-88 -37h-679q-51 0 -88 37t-37 88v536q0 51 37 88t88 37h179q51 0 88 -37t37 -88v-18h375q51 0 88 -37t37 -88z" />
    <glyph glyph-name="folder-open" unicode="&#xe83e;" horiz-adv-x="1071" 
d="M857 511v-90h-464q-53 0 -110 -26t-92 -67l-188 -221l-2 -3l-1 7q-1 5 0 7v536q0 51 37 88t88 37h179q51 0 88 -37t37 -88v-18h303q52 0 88 -37t37 -88zM1049 319q0 -17 -18 -37l-187 -221q-24 -28 -67 -48t-81 -20h-607q-19 0 -33 7t-14.5 24t16.5 37l188 221
q24 28 67 48t80 20h607q19 0 34 -7t15 -24z" />
    <glyph glyph-name="ok" unicode="&#xe813;" 
d="M865 534q0 -22 -16 -38l-480 -480q-16 -15 -38 -15t-38 15l-278 278q-15 16 -15 38t15 38l76 76q16 16 38 16t38 -16l164 -165l366 367q16 16 38 16t38 -16l76 -76q16 -15 16 -38z" />
    <glyph glyph-name="edit" unicode="&#xe832;" 
d="M496 189l64 65l-85 85l-64 -65v-31h53v-54h32zM741 591q-9 9 -18 0l-196 -196q-9 -9 0 -18t18 0l196 196q9 9 0 18zM786 260v-106q0 -67 -47 -114t-114 -47h-464q-67 0 -114 47t-47 114v464q0 66 47 113t114 48h464q35 0 65 -14q9 -4 10.5 -13.5t-5.5 -15.5l-27 -28
q-8 -8 -18 -4q-13 3 -25 3h-464q-37 0 -63 -26t-27 -63v-464q0 -37 27 -63t63 -27h464q37 0 63 27t26 63v70q0 7 5 12l36 36q8 8 20 4t11 -16zM732 671l161 -160l-375 -375h-161v160zM980 598l-51 -52l-161 161l51 52q16 15 38 15t38 -15l85 -85q16 -16 16 -38t-16 -38z" />
    <glyph glyph-name="pencil" unicode="&#xe831;" horiz-adv-x="857" 
d="M203 -7l50 51l-131 131l-51 -51v-60h72v-71h60zM494 511q0 12 -12 12q-5 0 -9 -4l-303 -302q-4 -4 -4 -10q0 -12 13 -12q5 0 9 4l303 302q3 4 3 10zM464 618l232 -232l-464 -465h-232v233zM845 564q0 -29 -20 -50l-93 -93l-232 233l93 92q20 21 49.5 21t51.5 -21
l131 -131q20 -22 20 -51z" />
    <glyph glyph-name="doc" unicode="&#xf0f6;" horiz-adv-x="857" 
d="M819 638q16 -16 27 -42t11 -50v-642q0 -23 -15 -38t-38 -16h-750q-23 0 -38 16t-16 38v892q0 23 16 38t38 16h500q22 0 49 -11t42 -27zM571 774v-210h210q-5 17 -12 23l-175 175q-6 7 -23 12zM786 -79v572h-232q-23 0 -38 16t-16 37v233h-429v-858h715zM214 404q0 7 5 12
t13 5h393q8 0 13 -5t5 -12v-36q0 -8 -5 -13t-13 -5h-393q-8 0 -13 5t-5 13v36zM625 279q8 0 13 -5t5 -13v-36q0 -8 -5 -13t-13 -5h-393q-8 0 -13 5t-5 13v36q0 8 5 13t13 5h393zM625 136q8 0 13 -5t5 -13v-36q0 -8 -5 -13t-13 -5h-393q-8 0 -13 5t-5 13v36q0 8 5 13t13 5
h393z" />
    <glyph glyph-name="italic" unicode="&#xe880;" horiz-adv-x="571" 
d="M0 -78l10 48q12 4 34 9t40 11t33 13q16 19 23 56l35 162q34 158 63 303t29 165v14q-13 8 -30 11t-39 4t-32 3l10 58l67 -4q48 -3 84 -4t67 -1q27 0 55 1t68 4l54 4q-2 -22 -10 -50q-17 -6 -57 -16t-60 -19q-5 -10 -8 -23l-5 -23q-2 -10 -4 -25t-4 -24q-15 -82 -49 -234
t-43 -198l-18 -83l-9 -46q-4 -22 -4 -32l1 -10q9 -3 103 -18q-2 -24 -9 -55q-6 0 -18 -1t-18 -1q-16 0 -49 6t-48 6q-77 1 -115 1q-28 0 -79 -5z" />
    <glyph glyph-name="align-left" unicode="&#xe883;" 
d="M1000 100v-71q0 -15 -11 -25t-25 -11h-928q-15 0 -25 11t-11 25v71q0 15 11 25t25 11h928q15 0 25 -11t11 -25zM786 314v-71q0 -15 -11 -25t-25 -11h-714q-15 0 -25 11t-11 25v71q0 15 11 25t25 11h714q15 0 25 -11t11 -25zM929 529v-72q0 -14 -11 -25t-25 -11h-857
q-15 0 -25 11t-11 25v72q0 14 11 25t25 10h857q14 0 25 -10t11 -25zM714 743v-72q0 -14 -10 -25t-25 -10h-643q-15 0 -25 10t-11 25v72q0 14 11 25t25 11h643q14 0 25 -11t10 -25z" />
    <glyph glyph-name="font" unicode="&#xe87e;" horiz-adv-x="928" 
d="M405 538l-95 -251l76 -1q58 -1 89 -1q11 0 32 1q-48 141 -102 252zM0 -79l1 44q13 4 31 7t32 6t28 8t25 17t17 28l132 344l156 404h72l6 -12l114 -268q19 -43 60 -144t63 -153q9 -19 33 -80t40 -94q11 -26 19 -32q11 -9 49 -17t47 -11q4 -22 4 -32q0 -3 -1 -8t0 -7
q-35 0 -106 5t-107 4q-42 0 -120 -4t-99 -4q0 24 2 43l73 16l7 1q6 1 9 2l17 7q4 2 6 4l5 6q3 4 1 8q0 9 -17 54t-40 99l-24 56l-251 1q-14 -32 -43 -109t-28 -91q0 -12 8 -21t24 -14t27 -7l32 -5q21 -3 23 -2q1 -11 1 -32q0 -5 -1 -16q-33 0 -98 6t-97 6q-5 0 -15 -3
t-12 -2q-45 -8 -105 -8z" />
    <glyph glyph-name="bold" unicode="&#xe87f;" horiz-adv-x="785" 
d="M310 1q41 -18 78 -18q210 0 210 187q0 64 -23 101q-15 24 -34 41t-38 26t-45 14t-47 6t-53 1q-40 0 -56 -6v-88q0 -59 -1 -88v-92q0 -21 2 -47t7 -37zM302 418q23 -4 61 -4q46 0 80 7t61 25t42 50t14 79q0 39 -16 68t-45 46t-60 24t-69 8q-28 0 -73 -7q0 -28 3 -84t2 -85
v-45q0 -30 -1 -44q0 -26 1 -38zM0 -79l1 53q9 2 48 9t59 15q4 7 7 15t4 19t4 18t1 21t0 19v36q0 548 -12 572q-2 5 -12 8t-25 6t-28 4t-27 3t-17 2l-2 46q55 1 190 6t208 6q13 0 38 -1t38 0q39 0 76 -7t72 -24t60 -39t41 -59t16 -76q0 -29 -9 -54t-22 -40t-36 -32t-41 -25
t-47 -22q86 -20 144 -75t57 -138q0 -56 -20 -101t-52 -72t-77 -48t-91 -27t-98 -8q-25 0 -74 2t-74 1q-59 0 -171 -6z" />
    <glyph glyph-name="align-center" unicode="&#xe884;" 
d="M1000 100v-71q0 -15 -11 -25t-25 -11h-928q-15 0 -25 11t-11 25v71q0 15 11 25t25 11h928q15 0 25 -11t11 -25zM786 314v-71q0 -15 -11 -25t-25 -11h-500q-14 0 -25 11t-11 25v71q0 15 11 25t25 11h500q15 0 25 -11t11 -25zM929 529v-72q0 -14 -11 -25t-25 -11h-786
q-14 0 -25 11t-11 25v72q0 14 11 25t25 10h786q14 0 25 -10t11 -25zM714 743v-72q0 -14 -10 -25t-25 -10h-358q-14 0 -25 10t-10 25v72q0 14 10 25t25 11h358q14 0 25 -11t10 -25z" />
    <glyph glyph-name="align-right" unicode="&#xe885;" 
d="M1000 100v-71q0 -15 -11 -25t-25 -11h-928q-15 0 -25 11t-11 25v71q0 15 11 25t25 11h928q15 0 25 -11t11 -25zM1000 314v-71q0 -15 -11 -25t-25 -11h-714q-14 0 -25 11t-11 25v71q0 15 11 25t25 11h714q15 0 25 -11t11 -25zM1000 529v-72q0 -14 -11 -25t-25 -11h-857
q-14 0 -25 11t-11 25v72q0 14 11 25t25 10h857q15 0 25 -10t11 -25zM1000 743v-72q0 -14 -11 -25t-25 -10h-643q-14 0 -25 10t-10 25v72q0 14 10 25t25 11h643q15 0 25 -11t11 -25z" />
    <glyph glyph-name="align-justify" unicode="&#xe886;" 
d="M1000 100v-71q0 -15 -11 -25t-25 -11h-928q-15 0 -25 11t-11 25v71q0 15 11 25t25 11h928q15 0 25 -11t11 -25zM1000 314v-71q0 -15 -11 -25t-25 -11h-928q-15 0 -25 11t-11 25v71q0 15 11 25t25 11h928q15 0 25 -11t11 -25zM1000 529v-72q0 -14 -11 -25t-25 -11h-928
q-15 0 -25 11t-11 25v72q0 14 11 25t25 10h928q15 0 25 -10t11 -25zM1000 743v-72q0 -14 -11 -25t-25 -10h-928q-15 0 -25 10t-11 25v72q0 14 11 25t25 11h928q15 0 25 -11t11 -25z" />
    <glyph glyph-name="indent-left" unicode="&#xe888;" 
d="M214 546v-321q0 -7 -5 -13t-12.5 -5.5t-12.5 5.5l-161 161q-5 5 -5 13t5 13l161 160q5 5 12.5 5t12.5 -5t5 -13zM1000 118v-107q0 -7 -5 -13t-13 -5h-964q-7 0 -13 5t-5 13v107q0 7 5 12t13 6h964q7 0 13 -6t5 -12zM1000 332v-107q0 -7 -5 -13t-13 -5h-607q-7 0 -13 5
t-5 13v107q0 7 5 13t13 5h607q7 0 13 -5t5 -13zM1000 546v-107q0 -7 -5 -12t-13 -6h-607q-7 0 -13 6t-5 12v107q0 8 5 13t13 5h607q7 0 13 -5t5 -13zM1000 761v-107q0 -8 -5 -13t-13 -5h-964q-7 0 -13 5t-5 13v107q0 7 5 12t13 6h964q7 0 13 -6t5 -12z" />
    <glyph glyph-name="indent-right" unicode="&#xe889;" 
d="M196 386q0 -8 -5 -13l-160 -161q-5 -5 -12.5 -5t-13.5 5t-5 13v321q0 8 5 13t13 5t13 -5l160 -160q5 -5 5 -13zM1000 118v-107q0 -7 -5 -13t-13 -5h-964q-7 0 -13 5t-5 13v107q0 7 5 12t13 6h964q7 0 13 -6t5 -12zM1000 332v-107q0 -7 -5 -13t-13 -5h-607q-7 0 -13 5
t-5 13v107q0 7 5 13t13 5h607q7 0 13 -5t5 -13zM1000 546v-107q0 -7 -5 -12t-13 -6h-607q-7 0 -13 6t-5 12v107q0 8 5 13t13 5h607q7 0 13 -5t5 -13zM1000 761v-107q0 -8 -5 -13t-13 -5h-964q-7 0 -13 5t-5 13v107q0 7 5 12t13 6h964q7 0 13 -6t5 -12z" />
    <glyph glyph-name="list-bullet" unicode="&#xf0ca;" 
d="M214 64q0 -44 -31 -76t-76 -31t-76 31t-31 76t31 76t76 31t76 -31t31 -76zM214 350q0 -45 -31 -76t-76 -31t-76 31t-31 76t31 76t76 31t76 -31t31 -76zM1000 118v-107q0 -7 -5 -13t-13 -5h-678q-8 0 -13 5t-5 13v107q0 7 5 12t13 6h678q7 0 13 -6t5 -12zM214 636
q0 -45 -31 -76t-76 -31t-76 31t-31 76t31 76t76 31t76 -31t31 -76zM1000 404v-108q0 -7 -5 -12t-13 -5h-678q-8 0 -13 5t-5 12v108q0 7 5 12t13 5h678q7 0 13 -5t5 -12zM1000 689v-107q0 -7 -5 -12t-13 -6h-678q-8 0 -13 6t-5 12v107q0 8 5 13t13 5h678q7 0 13 -5t5 -13z
" />
    <glyph glyph-name="underline" unicode="&#xf0cd;" horiz-adv-x="857" 
d="M27 726q-21 1 -25 2l-2 49q7 1 22 1q34 0 63 -3q74 -4 93 -4q47 0 93 2q65 2 82 3q31 0 48 1l-1 -8l1 -41q-33 -5 -69 -5q-33 0 -44 -14q-7 -7 -7 -73l1 -160l8 -157q3 -69 28 -112q20 -33 54 -52q49 -26 98 -26q59 0 107 16q31 10 55 28q27 20 37 36q20 31 29 63
q12 41 12 128q0 44 -2 72t-6 68t-8 89l-2 33q-3 37 -13 49q-19 20 -43 19l-56 -1l-8 2l1 48h47l114 -6q43 -2 110 6l10 -1q3 -22 3 -29q0 -4 -2 -17q-25 -7 -47 -8q-41 -6 -44 -9q-8 -8 -8 -23v-15q0 -11 1 -17q5 -11 13 -221q3 -109 -9 -170q-8 -42 -23 -68
q-21 -36 -62 -69q-42 -31 -102.5 -49.5t-141.5 -18.5q-93 0 -159 26t-99.5 68t-46.5 109q-9 45 -9 132v186q0 105 -9 119q-14 20 -82 22zM857 -61v36q0 8 -5 13t-13 5h-821q-8 0 -13 -5t-5 -13v-36q0 -8 5 -13t13 -5h821q8 0 13 5t5 13z" />
    <glyph glyph-name="quote-left" unicode="&#xf10d;" horiz-adv-x="928" 
d="M429 314v-214q0 -45 -32 -76t-76 -31h-214q-44 0 -76 31t-31 76v393q0 58 23 111t61 91t91 61t111 23h35q15 0 26 -11t10 -25v-72q0 -14 -10 -25t-26 -10h-35q-59 0 -101 -42t-42 -101v-18q0 -22 16 -38t37 -16h125q45 0 76 -31t32 -76zM929 314v-214q0 -45 -32 -76
t-76 -31h-214q-44 0 -76 31t-31 76v393q0 58 23 111t61 91t91 61t111 23h35q15 0 26 -11t10 -25v-72q0 -14 -10 -25t-26 -10h-35q-59 0 -101 -42t-42 -101v-18q0 -22 16 -38t37 -16h125q45 0 76 -31t32 -76z" />
    <glyph glyph-name="code" unicode="&#xf121;" horiz-adv-x="1071" 
d="M319 69l-28 -28q-5 -5 -12 -5t-13 5l-260 261q-6 5 -6 12t6 13l260 260q5 6 13 6t12 -6l28 -28q6 -5 6 -13t-6 -12l-219 -220l219 -219q6 -6 6 -13t-6 -13zM649 665l-208 -721q-2 -7 -9 -11t-13 -1l-34 9q-8 3 -11 9t-2 14l209 720q2 8 8 11t13 2l35 -10q7 -2 11 -9
t1 -13zM1016 302l-260 -261q-6 -5 -13 -5t-13 5l-28 28q-5 6 -5 13t5 13l219 219l-219 220q-5 5 -5 12t5 13l28 28q6 6 13 6t13 -6l260 -260q5 -5 5 -13t-5 -12z" />
    <glyph glyph-name="link " unicode="&#xe820;" horiz-adv-x="928" 
d="M804 171q0 23 -16 38l-116 116q-16 16 -39 16t-39 -18l22 -22q3 -3 9 -11t7 -14l2 -15q0 -23 -16 -38t-38 -16q-8 0 -15 2t-14 7t-11 9l-22 22q-19 -17 -19 -40t16 -38l115 -116q15 -15 37.5 -15t38.5 15l82 81q16 16 16 37zM411 565q0 22 -15 38l-115 115q-16 16 -38 16
t-38 -15l-82 -82q-16 -15 -16 -37t16 -38l116 -116q15 -15 38 -15t40 17l-23 23q-3 3 -8 10t-7 14t-2 16q0 22 15 38t38 15q9 0 16 -2t14 -7l11 -8q4 -3 12 -12l10 -11q18 17 18 41zM911 171q0 -66 -48 -113l-82 -81q-46 -47 -113.5 -47t-113.5 48l-115 115
q-46 47 -46 114.5t49 115.5l-49 49q-48 -49 -115.5 -49t-114.5 47l-116 116q-47 47 -47 114t47 113l82 82q47 46 114 46t114 -47l115 -116q46 -46 46 -114t-49 -116l49 -49q48 49 115.5 49t114.5 -47l116 -116q47 -47 47 -114z" />
    <glyph glyph-name="picture" unicode="&#xe80d;" horiz-adv-x="1071" 
d="M357 529q0 -45 -31 -76t-76 -32t-76 32t-31 76t31 76t76 31t76 -31t31 -76zM929 314v-250h-786v107l178 179l90 -89l285 285zM982 707h-893q-7 0 -12 -5t-6 -13v-678q0 -7 6 -13t12 -5h893q7 0 13 5t5 13v678q0 8 -5 13t-13 5zM1071 689v-678q0 -37 -26 -63t-63 -27h-893
q-36 0 -63 27t-26 63v678q0 37 26 63t63 27h893q37 0 63 -27t26 -63z" />
    <glyph glyph-name="ccw" unicode="&#xe866;" horiz-adv-x="857" 
d="M857 350q0 -87 -34 -166t-91 -137t-137 -92t-166 -34q-96 0 -183 41t-147 114q-4 6 -4 13t5 11l76 77q6 5 14.5 4.5t12.5 -6.5q41 -53 100 -82t126 -29q58 0 110 23t92 61t61 91t22 111t-22 111t-61 91t-92 61t-109.5 23t-105.5 -20t-90 -57l77 -77q17 -16 7.5 -38.5
t-32.5 -22.5h-250q-15 0 -25 11t-11 25v250q0 24 22 33.5t39 -8.5l72 -72q60 57 137 88t159 31q87 0 166 -34t137 -92t91 -137t34 -166z" />
    <glyph glyph-name="cw" unicode="&#xe865;" horiz-adv-x="857" 
d="M857 707v-250q0 -14 -10 -25t-26 -11h-250q-23 0 -32.5 22.5t7.5 38.5l77 77q-82 77 -194 77q-58 0 -111 -23t-91 -61t-61 -91t-23 -111t23 -111t61 -91t91 -61t111 -23q66 0 125 29t100 82q4 6 12.5 6.5t14.5 -4.5l76 -77q5 -4 6 -11t-5 -13q-60 -74 -147 -114t-182 -41
q-87 0 -167 34t-136 92t-92 137t-34 166t34 166t92 137t136 92t167 34q82 0 158 -31t137 -88l72 72q17 18 39 8.5t22 -33.5z" />
    <glyph glyph-name="header" unicode="&#xf1dc;" 
d="M905 -79q-25 0 -74 2t-74 2t-74 -2t-74 -2q-13 0 -21 12t-7 25q0 18 9 26t22 9t29 4t25 9q18 11 18 78v218q0 12 -1 17q-7 3 -28 3h-376q-22 0 -29 -3l-1 -224q0 -79 21 -91q9 -6 26 -8t32 -2t25 -8t11 -26q0 -14 -6 -26t-21 -13q-26 0 -78 2t-76.5 2t-71.5 -2t-71 -2
q-13 0 -20 12t-7 25q0 17 9 25t20 10t26 4t24 9q18 13 18 80l-1 31v454l1 15q1 13 0 20t-1 21t-2 24l-4 20q-2 10 -6 18t-9 10q-8 5 -25 7t-29 1t-23 7t-10 26q0 14 6 26t20 13q26 0 78 -2t76 -2t72 2t70 2q14 0 21 -13t7 -26q0 -17 -9 -25t-22 -8t-27 -2t-24 -7
q-20 -12 -20 -90l1 -196q7 -2 22 -2h390q14 0 21 2q1 6 1 18v178q0 78 -19 90q-10 6 -33 7t-37 7t-14 28q0 14 7 26t21 13q24 0 74 -2t73.5 -2t71.5 2t72 2q14 0 21 -13t7 -26q0 -17 -10 -25t-22 -8t-29 -2t-24 -7q-20 -13 -20 -90l1 -526q0 -66 19 -78q9 -6 25 -8t30 -2
t23 -9t10 -25q0 -14 -6 -26t-20 -13z" />
    <glyph glyph-name="h-sign" unicode="&#xf0fd;" horiz-adv-x="857" 
d="M714 100v500q0 15 -10 25t-25 11h-72q-14 0 -25 -11t-11 -25v-179h-285v179q0 15 -11 25t-25 11h-71q-15 0 -25 -11t-11 -25v-500q0 -14 11 -25t25 -11h71q15 0 25 11t11 25v179h285v-179q0 -14 11 -25t25 -11h72q14 0 25 11t10 25zM857 618v-536q0 -66 -47 -113
t-114 -48h-535q-67 0 -114 48t-47 113v536q0 66 47 113t114 48h535q67 0 114 -48t47 -113z" />
    <glyph glyph-name="replay" unicode="&#xf112;" 
d="M1000 225q0 -93 -71 -252q-1 -4 -6 -13t-7 -17t-7 -12q-7 -10 -15.5 -10t-13.5 6t-5 14q0 5 1 15t2 13q3 38 3 69q0 56 -10 101t-27 77t-45 56t-59 39t-74 24t-86 12t-98 3h-125v-143q0 -14 -10 -25t-26 -11t-25 11l-285 286q-11 10 -11 25t11 25l285 286q11 10 25 10
t26 -10t10 -25v-143h125q398 0 488 -225q30 -75 30 -186z" />
    <glyph glyph-name="list-numbered" unicode="&#xf0cb;" 
d="M205 -54q0 -45 -31 -70t-75 -26q-60 0 -96 37l31 49q28 -25 60 -25q16 0 28 8t12 24q0 35 -59 31l-14 31q4 6 18 24l24 31q10 13 20 21v1q-9 0 -27 -1t-27 0v-30h-59v85h186v-49l-53 -65q28 -6 45 -27t17 -49zM206 296v-89h-202q-4 20 -4 30q0 29 14 52t31 38t37 27
t31 24t14 25q0 14 -9 22t-22 7q-25 0 -45 -32l-47 33q13 28 40 44t59 16q40 0 68 -23t28 -63q0 -28 -19 -51t-42 -36t-42 -28t-20 -30h71v34h59zM992 118v-107q0 -7 -5 -13t-13 -5h-678q-8 0 -13 5t-5 13v107q0 8 5 13t13 5h678q7 0 13 -6t5 -12zM206 620v-56h-187v56h60v67
q0 45 1 68v7h-1q-5 -10 -28 -30l-40 42l76 71h59v-225h60zM992 404v-108q0 -7 -5 -12t-13 -5h-678q-8 0 -13 5t-5 12v108q0 7 5 12t13 5h678q7 0 13 -5t5 -12zM992 689v-107q0 -7 -5 -12t-13 -6h-678q-8 0 -13 6t-5 12v107q0 8 5 13t13 5h678q7 0 13 -5t5 -13z" />
    <glyph glyph-name="level-up" unicode="&#xf148;" horiz-adv-x="571" 
d="M568 514q-10 -21 -32 -21h-107v-482q0 -8 -5 -13t-13 -5h-393q-12 0 -16.5 10.5t2.5 18.5l89 108q5 6 14 6h179v357h-107q-23 0 -32.5 20.5t4.5 38.5l179 214q10 12 27 12t28 -12l178 -214q15 -18 5 -38z" />
    <glyph glyph-name="level-down" unicode="&#xf149;" horiz-adv-x="571" 
d="M18 707h393q7 0 12 -5t6 -13v-482h107q22 0 32 -20t-5 -39l-178 -214q-11 -13 -28 -13t-27 13l-179 214q-14 17 -5 39q10 20 33 20h107v357h-179q-8 0 -14 6l-89 108q-7 7 -2 18t16 11z" />
    <glyph glyph-name="brush" unicode="&#xf1fc;" 
d="M901 850q39 0 69 -26t29 -65q0 -35 -25 -84q-185 -351 -260 -420q-54 -51 -121 -51q-71 0 -121 52t-50.5 123t51.5 118l356 323q33 30 72 30zM394 273q22 -42 59 -73t84 -42l1 -40q2 -118 -72 -193t-195 -75q-68 0 -121 26t-85 71t-49 102t-16 123l23 -17q19 -14 35 -25
t32 -20t26 -9q23 0 31 20q14 37 32 63t39 42t49 27t57 14t70 6z" />
    <glyph glyph-name="help" unicode="&#xf128;" horiz-adv-x="571" 
d="M340 149v-134q0 -9 -7 -15t-15 -7h-134q-9 0 -16 7t-7 15v134q0 9 7 16t16 6h134q9 0 15 -6t7 -16zM516 484q0 -30 -8 -56t-20 -43t-31 -33t-32 -25t-34 -19q-23 -13 -38 -37t-15 -37q0 -10 -7 -18t-16 -9h-134q-8 0 -14 11t-6 20v26q0 46 37 87t79 60q33 16 47 32t14 41
t-26 42t-60 18q-36 0 -60 -16q-20 -14 -60 -64q-7 -9 -17 -9q-7 0 -14 4l-91 70q-8 6 -9 14t3 16q89 148 259 148q45 0 90 -17t81 -46t59 -72t23 -88z" />
    <glyph glyph-name="superscript" unicode="&#xf12b;" horiz-adv-x="857" 
d="M498 86v-93h-139l-89 141l-13 23q-4 5 -6 12h-2q0 -2 -1 -4l-4 -8q-5 -11 -14 -25l-86 -139h-144v93h71l110 162l-103 152h-76v94h154l77 -127l13 -24q4 -5 6 -11h2q1 5 6 11l14 24l78 127h143v-94h-69l-103 -149l114 -165h61zM853 465v-115h-287l-1 15q-3 16 -3 26
q0 36 15 65t36 48t47 37t47 30t36 30t15 36q0 21 -17 35t-39 13q-29 0 -54 -21q-8 -6 -20 -22l-59 52q15 20 35 37q47 36 105 36q61 0 99 -33t38 -89q0 -31 -13 -57t-35 -43t-45 -33t-46 -28t-37 -28t-17 -36h130v45h70z" />
    <glyph glyph-name="star" unicode="&#xe805;" horiz-adv-x="928" 
d="M929 489q0 -12 -15 -27l-202 -197l48 -279v-12q0 -11 -6 -19t-16.5 -8.5t-22.5 6.5l-251 132l-250 -132q-12 -7 -23 -7t-17 9t-6 19q0 4 1 12l48 279l-203 197q-14 15 -14 27q0 21 31 26l280 40l126 254q11 23 27 23t28 -23l125 -254l280 -40q32 -5 32 -26z" />
    <glyph glyph-name="star-empty" unicode="&#xe806;" horiz-adv-x="928" 
d="M635 290l170 166l-235 34l-106 213l-105 -213l-236 -34l171 -166l-41 -235l211 111l211 -111zM929 489q0 -12 -15 -27l-202 -197l48 -279v-12q0 -28 -23 -28q-10 0 -22 7l-251 132l-250 -132q-12 -7 -23 -7t-17 9t-6 19q0 4 1 12l48 279l-203 197q-14 15 -14 27
q0 21 31 26l280 40l126 254q11 23 27 23t28 -23l125 -254l280 -40q32 -5 32 -26z" />
    <glyph glyph-name="audio" unicode="&#xf1c7;" horiz-adv-x="857" 
d="M819 638q16 -16 27 -42t11 -50v-642q0 -23 -15 -38t-38 -16h-750q-23 0 -38 16t-16 38v892q0 23 16 38t38 16h500q22 0 49 -11t42 -27zM571 774v-210h210q-5 17 -12 23l-175 175q-6 7 -23 12zM786 -79v572h-232q-23 0 -38 16t-16 37v233h-429v-858h715zM346 376
q11 -5 11 -17v-304q0 -12 -11 -16q-4 -1 -7 -1q-6 0 -12 5l-93 93h-73q-8 0 -13 5t-5 13v107q0 8 5 13t13 5h73l93 93q8 8 19 4zM579 -9q17 0 28 14q72 88 72 202t-72 203q-9 11 -24 13t-26.5 -7.5t-13.5 -24.5t8 -26q56 -69 56 -158t-56 -157q-9 -12 -8 -27t13 -23
q10 -9 23 -9zM461 74q15 0 26 11q49 52 49 122t-49 122q-10 11 -25 12t-26 -10t-11 -25t10 -26q29 -32 29 -73t-29 -73q-10 -11 -10 -26t11.5 -24.5t24.5 -9.5z" />
    <glyph glyph-name="note" unicode="&#xf14b;" horiz-adv-x="857" 
d="M225 232l85 -85l-29 -29h-31v53h-54v32zM457 449q7 -7 -2 -16l-163 -163q-9 -9 -16.5 -1.5t1.5 16.5l163 163q9 9 17 1zM304 64l303 304l-161 161l-303 -304v-161h161zM643 404l51 51q16 16 16 38t-16 38l-85 85q-15 15 -38 15t-37 -15l-52 -52zM857 618v-536
q0 -66 -47 -113t-114 -48h-535q-67 0 -114 48t-47 113v536q0 66 47 113t114 48h535q67 0 114 -48t47 -113z" />
    <glyph glyph-name="trash" unicode="&#xe83b;" horiz-adv-x="785" 
d="M286 82v393q0 8 -5 13t-13 5h-36q-8 0 -13 -5t-5 -13v-393q0 -8 5 -13t13 -5h36q8 0 13 5t5 13zM429 82v393q0 8 -5 13t-13 5h-36q-8 0 -13 -5t-5 -13v-393q0 -8 5 -13t13 -5h36q8 0 13 5t5 13zM571 82v393q0 8 -5 13t-12 5h-36q-8 0 -13 -5t-5 -13v-393q0 -8 5 -13
t13 -5h36q7 0 12 5t5 13zM268 636h250l-27 65q-4 5 -9 6h-177q-6 -1 -10 -6zM786 618v-36q0 -8 -5 -13t-13 -5h-54v-529q0 -46 -26 -80t-63 -34h-464q-37 0 -63 33t-27 79v531h-53q-8 0 -13 5t-5 13v36q0 8 5 13t13 5h172l39 93q9 21 31 35t44 15h178q23 0 44 -15t30 -35
l39 -93h173q8 0 13 -5t5 -13z" />
    <glyph glyph-name="attention" unicode="&#xe839;" horiz-adv-x="857" 
d="M429 779q116 0 215 -58t156 -156t57 -215t-57 -215t-156 -156t-215 -58t-216 58t-155 156t-58 215t58 215t155 156t216 58zM500 83v106q0 8 -5 13t-12 5h-107q-8 0 -13 -5t-6 -13v-106q0 -8 6 -13t13 -6h107q7 0 12 6t5 13zM499 275l10 346q0 7 -6 10q-5 5 -13 5h-123
q-8 0 -13 -5q-6 -3 -6 -10l10 -346q0 -6 5 -10t14 -4h103q8 0 13 4t6 10z" />
    <glyph glyph-name="docs" unicode="&#xf0c5;" 
d="M946 636q23 0 38 -16t16 -38v-678q0 -23 -16 -38t-38 -16h-535q-23 0 -38 16t-16 38v160h-303q-23 0 -38 16t-16 38v375q0 22 11 49t27 42l228 228q15 16 42 27t49 11h232q23 0 38 -16t16 -38v-183q38 23 71 23h232zM643 517l-167 -167h167v167zM286 731l-167 -167h167
v167zM395 370l176 176v233h-214v-233q0 -22 -15 -37t-38 -16h-233v-357h286v143q0 22 11 49t27 42zM929 -79v643h-215v-232q0 -22 -15 -38t-38 -15h-232v-358h500z" />
    <glyph glyph-name="exchange" unicode="&#xf0ec;" 
d="M1000 189v-107q0 -7 -5 -12t-13 -6h-768v-107q0 -7 -5 -12t-13 -6q-6 0 -13 6l-178 178q-5 6 -5 13.5t5 12.5l179 178q5 5 12.5 5t12.5 -5t5 -13v-107h768q7 0 13 -5t5 -13zM1000 493q0 -8 -5 -13l-179 -178q-5 -6 -12.5 -6t-12.5 6t-5 12v107h-768q-7 0 -13 6t-5 12v107
q0 8 5 13t13 5h768v107q0 8 5 13t12 5t14 -5l178 -178q5 -5 5 -13z" />
    <glyph glyph-name="export" unicode="&#xe830;" horiz-adv-x="928" 
d="M786 298v-144q0 -67 -47 -114t-114 -47h-464q-67 0 -114 47t-47 114v464q0 66 47 113t114 48h142q7 0 13 -6t5 -12q0 -15 -15 -18q-43 -15 -74 -34q-5 -2 -9 -2h-62q-37 0 -63 -26t-27 -63v-464q0 -37 27 -63t63 -27h464q37 0 63 27t26 63v119q0 11 10 16q16 7 31 21
q8 9 19.5 4t11.5 -16zM918 575l-214 -214q-10 -11 -25 -11q-7 0 -14 3q-22 9 -22 33v107h-89q-181 0 -245 -73q-66 -77 -41 -264q2 -13 -11 -19l-7 -1q-9 0 -14 7l-12 17q-6 9 -22 39t-28 55t-21 64t-10 68q0 27 2 51t8 50t15 49t27 45t38 42t52 34t70 27t89 17t110 6h89
v107q0 24 22 33q7 3 14 3q14 0 25 -11l214 -214q11 -10 11 -25t-11 -25z" />
    <glyph glyph-name="bookmark" unicode="&#xe829;" horiz-adv-x="714" 
d="M650 779q12 0 24 -5q19 -8 29 -23t11 -35v-719q0 -19 -11 -35t-29 -23q-10 -4 -24 -4q-27 0 -47 18l-246 236l-246 -236q-20 -19 -46 -19q-13 0 -25 5q-18 7 -29 23t-11 35v719q0 19 11 35t29 23q12 5 25 5h585z" />
    <glyph glyph-name="bookmark-empty" unicode="&#xf097;" horiz-adv-x="714" 
d="M643 707h-572v-693l286 274l50 -47l236 -227v693zM650 779q12 0 24 -5q19 -8 29 -23t11 -35v-719q0 -19 -11 -35t-29 -23q-10 -4 -24 -4q-27 0 -47 18l-246 236l-246 -236q-20 -19 -46 -19q-13 0 -25 5q-18 7 -29 23t-11 35v719q0 19 11 35t29 23q12 5 25 5h585z" />
  </font>
</defs>
</svg>
